<mxfile host="app.diagrams.net" modified="2021-08-30T12:43:21.897Z" agent="5.0 (Windows NT 10.0; Win64; x64) AppleWebKit/537.36 (KHTML, like Gecko) Chrome/92.0.4515.159 Safari/537.36" etag="YC_jeXYJKfQ058SDgLPl" version="15.0.3" type="github" pages="2">
  <diagram id="C5RBs43oDa-KdzZeNtuy" name="Page-1">
    <mxGraphModel dx="2062" dy="1154" grid="1" gridSize="10" guides="1" tooltips="1" connect="1" arrows="1" fold="1" page="1" pageScale="1" pageWidth="827" pageHeight="1169" math="0" shadow="0">
      <root>
        <mxCell id="WIyWlLk6GJQsqaUBKTNV-0" />
        <mxCell id="WIyWlLk6GJQsqaUBKTNV-1" parent="WIyWlLk6GJQsqaUBKTNV-0" />
        <mxCell id="WIyWlLk6GJQsqaUBKTNV-2" value="" style="rounded=0;html=1;jettySize=auto;orthogonalLoop=1;fontSize=11;endArrow=block;endFill=0;endSize=8;strokeWidth=1;shadow=0;labelBackgroundColor=none;edgeStyle=orthogonalEdgeStyle;" parent="WIyWlLk6GJQsqaUBKTNV-1" source="WIyWlLk6GJQsqaUBKTNV-3" target="WIyWlLk6GJQsqaUBKTNV-6" edge="1">
          <mxGeometry relative="1" as="geometry" />
        </mxCell>
        <mxCell id="WIyWlLk6GJQsqaUBKTNV-3" value="5분 거래량 데이터" style="rounded=1;whiteSpace=wrap;html=1;fontSize=12;glass=0;strokeWidth=1;shadow=0;" parent="WIyWlLk6GJQsqaUBKTNV-1" vertex="1">
          <mxGeometry x="365" y="80" width="120" height="40" as="geometry" />
        </mxCell>
        <mxCell id="WIyWlLk6GJQsqaUBKTNV-4" value="Yes" style="rounded=0;html=1;jettySize=auto;orthogonalLoop=1;fontSize=11;endArrow=block;endFill=0;endSize=8;strokeWidth=1;shadow=0;labelBackgroundColor=none;edgeStyle=orthogonalEdgeStyle;" parent="WIyWlLk6GJQsqaUBKTNV-1" source="WIyWlLk6GJQsqaUBKTNV-6" target="WIyWlLk6GJQsqaUBKTNV-10" edge="1">
          <mxGeometry y="20" relative="1" as="geometry">
            <mxPoint as="offset" />
          </mxGeometry>
        </mxCell>
        <mxCell id="WIyWlLk6GJQsqaUBKTNV-5" value="No" style="edgeStyle=orthogonalEdgeStyle;rounded=0;html=1;jettySize=auto;orthogonalLoop=1;fontSize=11;endArrow=block;endFill=0;endSize=8;strokeWidth=1;shadow=0;labelBackgroundColor=none;" parent="WIyWlLk6GJQsqaUBKTNV-1" source="WIyWlLk6GJQsqaUBKTNV-6" target="WIyWlLk6GJQsqaUBKTNV-7" edge="1">
          <mxGeometry y="10" relative="1" as="geometry">
            <mxPoint as="offset" />
          </mxGeometry>
        </mxCell>
        <mxCell id="WIyWlLk6GJQsqaUBKTNV-6" value="이전 거래량의&lt;br&gt;7배(700%)인가" style="rhombus;whiteSpace=wrap;html=1;shadow=0;fontFamily=Helvetica;fontSize=12;align=center;strokeWidth=1;spacing=6;spacingTop=-4;" parent="WIyWlLk6GJQsqaUBKTNV-1" vertex="1">
          <mxGeometry x="365" y="170" width="120" height="100" as="geometry" />
        </mxCell>
        <mxCell id="WIyWlLk6GJQsqaUBKTNV-7" value="동작X 처음으로" style="rounded=1;whiteSpace=wrap;html=1;fontSize=12;glass=0;strokeWidth=1;shadow=0;" parent="WIyWlLk6GJQsqaUBKTNV-1" vertex="1">
          <mxGeometry x="535" y="200" width="120" height="40" as="geometry" />
        </mxCell>
        <mxCell id="H4loltG6pKIcJwq8V3Zs-12" style="edgeStyle=orthogonalEdgeStyle;rounded=0;orthogonalLoop=1;jettySize=auto;html=1;exitX=0.5;exitY=1;exitDx=0;exitDy=0;entryX=0.5;entryY=0;entryDx=0;entryDy=0;" edge="1" parent="WIyWlLk6GJQsqaUBKTNV-1" source="WIyWlLk6GJQsqaUBKTNV-10" target="H4loltG6pKIcJwq8V3Zs-4">
          <mxGeometry relative="1" as="geometry" />
        </mxCell>
        <mxCell id="H4loltG6pKIcJwq8V3Zs-15" style="edgeStyle=orthogonalEdgeStyle;rounded=0;orthogonalLoop=1;jettySize=auto;html=1;exitX=0.5;exitY=1;exitDx=0;exitDy=0;entryX=0.5;entryY=0;entryDx=0;entryDy=0;" edge="1" parent="WIyWlLk6GJQsqaUBKTNV-1" source="WIyWlLk6GJQsqaUBKTNV-10" target="H4loltG6pKIcJwq8V3Zs-6">
          <mxGeometry relative="1" as="geometry" />
        </mxCell>
        <mxCell id="H4loltG6pKIcJwq8V3Zs-24" style="edgeStyle=orthogonalEdgeStyle;rounded=0;orthogonalLoop=1;jettySize=auto;html=1;exitX=0;exitY=0.5;exitDx=0;exitDy=0;entryX=0.5;entryY=1;entryDx=0;entryDy=0;" edge="1" parent="WIyWlLk6GJQsqaUBKTNV-1" source="WIyWlLk6GJQsqaUBKTNV-10" target="WIyWlLk6GJQsqaUBKTNV-7">
          <mxGeometry relative="1" as="geometry">
            <Array as="points">
              <mxPoint x="595" y="370" />
            </Array>
          </mxGeometry>
        </mxCell>
        <mxCell id="WIyWlLk6GJQsqaUBKTNV-10" value="BCT 값이&lt;br&gt;5%이상 증가&amp;nbsp;" style="rhombus;whiteSpace=wrap;html=1;shadow=0;fontFamily=Helvetica;fontSize=12;align=center;strokeWidth=1;spacing=6;spacingTop=-4;" parent="WIyWlLk6GJQsqaUBKTNV-1" vertex="1">
          <mxGeometry x="370" y="320" width="110" height="100" as="geometry" />
        </mxCell>
        <mxCell id="H4loltG6pKIcJwq8V3Zs-21" style="edgeStyle=orthogonalEdgeStyle;rounded=0;orthogonalLoop=1;jettySize=auto;html=1;exitX=0.5;exitY=1;exitDx=0;exitDy=0;entryX=1;entryY=0.5;entryDx=0;entryDy=0;" edge="1" parent="WIyWlLk6GJQsqaUBKTNV-1" source="H4loltG6pKIcJwq8V3Zs-4" target="H4loltG6pKIcJwq8V3Zs-18">
          <mxGeometry relative="1" as="geometry">
            <Array as="points">
              <mxPoint x="550" y="780" />
            </Array>
          </mxGeometry>
        </mxCell>
        <mxCell id="H4loltG6pKIcJwq8V3Zs-44" style="edgeStyle=orthogonalEdgeStyle;rounded=0;orthogonalLoop=1;jettySize=auto;html=1;entryX=0;entryY=0.5;entryDx=0;entryDy=0;" edge="1" parent="WIyWlLk6GJQsqaUBKTNV-1" source="H4loltG6pKIcJwq8V3Zs-4" target="H4loltG6pKIcJwq8V3Zs-43">
          <mxGeometry relative="1" as="geometry" />
        </mxCell>
        <mxCell id="H4loltG6pKIcJwq8V3Zs-4" value="BCT 값이&lt;br&gt;2% 하락" style="rhombus;whiteSpace=wrap;html=1;" vertex="1" parent="WIyWlLk6GJQsqaUBKTNV-1">
          <mxGeometry x="499" y="560" width="101" height="110" as="geometry" />
        </mxCell>
        <mxCell id="H4loltG6pKIcJwq8V3Zs-20" style="edgeStyle=orthogonalEdgeStyle;rounded=0;orthogonalLoop=1;jettySize=auto;html=1;exitX=0.5;exitY=1;exitDx=0;exitDy=0;" edge="1" parent="WIyWlLk6GJQsqaUBKTNV-1" source="H4loltG6pKIcJwq8V3Zs-6" target="H4loltG6pKIcJwq8V3Zs-18">
          <mxGeometry relative="1" as="geometry" />
        </mxCell>
        <mxCell id="H4loltG6pKIcJwq8V3Zs-29" style="edgeStyle=orthogonalEdgeStyle;rounded=0;orthogonalLoop=1;jettySize=auto;html=1;entryX=0;entryY=0.5;entryDx=0;entryDy=0;" edge="1" parent="WIyWlLk6GJQsqaUBKTNV-1" source="H4loltG6pKIcJwq8V3Zs-6" target="WIyWlLk6GJQsqaUBKTNV-6">
          <mxGeometry relative="1" as="geometry">
            <mxPoint x="360" y="220" as="targetPoint" />
            <Array as="points">
              <mxPoint x="160" y="615" />
              <mxPoint x="160" y="220" />
            </Array>
          </mxGeometry>
        </mxCell>
        <mxCell id="H4loltG6pKIcJwq8V3Zs-6" value="BCT 값이&lt;br&gt;유지 or 증가" style="rhombus;whiteSpace=wrap;html=1;" vertex="1" parent="WIyWlLk6GJQsqaUBKTNV-1">
          <mxGeometry x="242.5" y="560" width="115" height="110" as="geometry" />
        </mxCell>
        <mxCell id="H4loltG6pKIcJwq8V3Zs-9" value="Yes" style="text;html=1;strokeColor=none;fillColor=none;align=center;verticalAlign=middle;whiteSpace=wrap;rounded=0;" vertex="1" parent="WIyWlLk6GJQsqaUBKTNV-1">
          <mxGeometry x="454" y="450" width="40" height="20" as="geometry" />
        </mxCell>
        <mxCell id="H4loltG6pKIcJwq8V3Zs-32" style="edgeStyle=orthogonalEdgeStyle;rounded=0;orthogonalLoop=1;jettySize=auto;html=1;" edge="1" parent="WIyWlLk6GJQsqaUBKTNV-1" source="H4loltG6pKIcJwq8V3Zs-18" target="H4loltG6pKIcJwq8V3Zs-31">
          <mxGeometry relative="1" as="geometry" />
        </mxCell>
        <mxCell id="H4loltG6pKIcJwq8V3Zs-18" value="매수" style="rounded=0;whiteSpace=wrap;html=1;" vertex="1" parent="WIyWlLk6GJQsqaUBKTNV-1">
          <mxGeometry x="240" y="750" width="120" height="60" as="geometry" />
        </mxCell>
        <mxCell id="H4loltG6pKIcJwq8V3Zs-19" value="매도" style="rounded=0;whiteSpace=wrap;html=1;" vertex="1" parent="WIyWlLk6GJQsqaUBKTNV-1">
          <mxGeometry x="494" y="1050" width="120" height="60" as="geometry" />
        </mxCell>
        <mxCell id="H4loltG6pKIcJwq8V3Zs-22" value="no" style="text;html=1;strokeColor=none;fillColor=none;align=center;verticalAlign=middle;whiteSpace=wrap;rounded=0;" vertex="1" parent="WIyWlLk6GJQsqaUBKTNV-1">
          <mxGeometry x="500" y="710" width="40" height="20" as="geometry" />
        </mxCell>
        <mxCell id="H4loltG6pKIcJwq8V3Zs-23" value="Yes" style="text;html=1;strokeColor=none;fillColor=none;align=center;verticalAlign=middle;whiteSpace=wrap;rounded=0;" vertex="1" parent="WIyWlLk6GJQsqaUBKTNV-1">
          <mxGeometry x="315" y="700" width="40" height="20" as="geometry" />
        </mxCell>
        <mxCell id="H4loltG6pKIcJwq8V3Zs-25" value="No" style="text;html=1;strokeColor=none;fillColor=none;align=center;verticalAlign=middle;whiteSpace=wrap;rounded=0;" vertex="1" parent="WIyWlLk6GJQsqaUBKTNV-1">
          <mxGeometry x="510" y="340" width="40" height="20" as="geometry" />
        </mxCell>
        <mxCell id="H4loltG6pKIcJwq8V3Zs-30" value="no" style="text;html=1;strokeColor=none;fillColor=none;align=center;verticalAlign=middle;whiteSpace=wrap;rounded=0;" vertex="1" parent="WIyWlLk6GJQsqaUBKTNV-1">
          <mxGeometry x="190" y="575" width="40" height="20" as="geometry" />
        </mxCell>
        <mxCell id="H4loltG6pKIcJwq8V3Zs-33" style="edgeStyle=orthogonalEdgeStyle;rounded=0;orthogonalLoop=1;jettySize=auto;html=1;entryX=0.5;entryY=0;entryDx=0;entryDy=0;" edge="1" parent="WIyWlLk6GJQsqaUBKTNV-1" source="H4loltG6pKIcJwq8V3Zs-31" target="H4loltG6pKIcJwq8V3Zs-19">
          <mxGeometry relative="1" as="geometry" />
        </mxCell>
        <mxCell id="H4loltG6pKIcJwq8V3Zs-38" style="edgeStyle=orthogonalEdgeStyle;rounded=0;orthogonalLoop=1;jettySize=auto;html=1;entryX=0.5;entryY=0;entryDx=0;entryDy=0;" edge="1" parent="WIyWlLk6GJQsqaUBKTNV-1" source="H4loltG6pKIcJwq8V3Zs-31" target="H4loltG6pKIcJwq8V3Zs-37">
          <mxGeometry relative="1" as="geometry" />
        </mxCell>
        <mxCell id="H4loltG6pKIcJwq8V3Zs-31" value="거래량이&amp;nbsp;&lt;br&gt;30% 이상 감소" style="rhombus;whiteSpace=wrap;html=1;" vertex="1" parent="WIyWlLk6GJQsqaUBKTNV-1">
          <mxGeometry x="247.5" y="860" width="105" height="100" as="geometry" />
        </mxCell>
        <mxCell id="H4loltG6pKIcJwq8V3Zs-34" value="Yes" style="text;html=1;strokeColor=none;fillColor=none;align=center;verticalAlign=middle;whiteSpace=wrap;rounded=0;" vertex="1" parent="WIyWlLk6GJQsqaUBKTNV-1">
          <mxGeometry x="430" y="880" width="40" height="20" as="geometry" />
        </mxCell>
        <mxCell id="H4loltG6pKIcJwq8V3Zs-37" value="유지" style="rounded=0;whiteSpace=wrap;html=1;" vertex="1" parent="WIyWlLk6GJQsqaUBKTNV-1">
          <mxGeometry x="240" y="1040" width="120" height="60" as="geometry" />
        </mxCell>
        <mxCell id="H4loltG6pKIcJwq8V3Zs-41" value="Step 2" style="text;html=1;strokeColor=none;fillColor=none;align=center;verticalAlign=middle;whiteSpace=wrap;rounded=0;" vertex="1" parent="WIyWlLk6GJQsqaUBKTNV-1">
          <mxGeometry x="340" y="320" width="40" height="20" as="geometry" />
        </mxCell>
        <mxCell id="H4loltG6pKIcJwq8V3Zs-42" value="Step 1" style="text;html=1;strokeColor=none;fillColor=none;align=center;verticalAlign=middle;whiteSpace=wrap;rounded=0;" vertex="1" parent="WIyWlLk6GJQsqaUBKTNV-1">
          <mxGeometry x="335" y="180" width="40" height="20" as="geometry" />
        </mxCell>
        <mxCell id="H4loltG6pKIcJwq8V3Zs-43" value="Step 2 이동" style="rounded=0;whiteSpace=wrap;html=1;" vertex="1" parent="WIyWlLk6GJQsqaUBKTNV-1">
          <mxGeometry x="670" y="585" width="120" height="60" as="geometry" />
        </mxCell>
        <mxCell id="H4loltG6pKIcJwq8V3Zs-45" value="yes" style="text;html=1;strokeColor=none;fillColor=none;align=center;verticalAlign=middle;whiteSpace=wrap;rounded=0;" vertex="1" parent="WIyWlLk6GJQsqaUBKTNV-1">
          <mxGeometry x="614" y="584" width="40" height="20" as="geometry" />
        </mxCell>
        <mxCell id="H4loltG6pKIcJwq8V3Zs-48" value="No" style="text;html=1;strokeColor=none;fillColor=none;align=center;verticalAlign=middle;whiteSpace=wrap;rounded=0;" vertex="1" parent="WIyWlLk6GJQsqaUBKTNV-1">
          <mxGeometry x="330" y="980" width="40" height="20" as="geometry" />
        </mxCell>
      </root>
    </mxGraphModel>
  </diagram>
  <diagram id="hJDMKvsHEwMxVB3cpxlg" name="Page-2">
    <mxGraphModel dx="2062" dy="1154" grid="1" gridSize="10" guides="1" tooltips="1" connect="1" arrows="1" fold="1" page="1" pageScale="1" pageWidth="827" pageHeight="1169" math="0" shadow="0">
      <root>
        <mxCell id="SRIXOrh7soIWKhcX-LMY-0" />
        <mxCell id="SRIXOrh7soIWKhcX-LMY-1" parent="SRIXOrh7soIWKhcX-LMY-0" />
        <mxCell id="SRIXOrh7soIWKhcX-LMY-4" style="edgeStyle=orthogonalEdgeStyle;rounded=0;orthogonalLoop=1;jettySize=auto;html=1;entryX=0.5;entryY=0;entryDx=0;entryDy=0;" edge="1" parent="SRIXOrh7soIWKhcX-LMY-1" source="SRIXOrh7soIWKhcX-LMY-2" target="SRIXOrh7soIWKhcX-LMY-3">
          <mxGeometry relative="1" as="geometry" />
        </mxCell>
        <mxCell id="SRIXOrh7soIWKhcX-LMY-2" value="유지" style="rounded=0;whiteSpace=wrap;html=1;" vertex="1" parent="SRIXOrh7soIWKhcX-LMY-1">
          <mxGeometry x="354" y="60" width="120" height="60" as="geometry" />
        </mxCell>
        <mxCell id="SRIXOrh7soIWKhcX-LMY-5" style="edgeStyle=orthogonalEdgeStyle;rounded=0;orthogonalLoop=1;jettySize=auto;html=1;" edge="1" parent="SRIXOrh7soIWKhcX-LMY-1" source="SRIXOrh7soIWKhcX-LMY-3">
          <mxGeometry relative="1" as="geometry">
            <mxPoint x="414" y="350" as="targetPoint" />
          </mxGeometry>
        </mxCell>
        <mxCell id="SRIXOrh7soIWKhcX-LMY-8" style="edgeStyle=orthogonalEdgeStyle;rounded=0;orthogonalLoop=1;jettySize=auto;html=1;entryX=0;entryY=0.5;entryDx=0;entryDy=0;" edge="1" parent="SRIXOrh7soIWKhcX-LMY-1" source="SRIXOrh7soIWKhcX-LMY-3" target="SRIXOrh7soIWKhcX-LMY-2">
          <mxGeometry relative="1" as="geometry">
            <Array as="points">
              <mxPoint x="290" y="220" />
              <mxPoint x="290" y="90" />
            </Array>
          </mxGeometry>
        </mxCell>
        <mxCell id="SRIXOrh7soIWKhcX-LMY-3" value="5분 거래량 4배 감소&lt;br&gt;(400%)" style="rhombus;whiteSpace=wrap;html=1;" vertex="1" parent="SRIXOrh7soIWKhcX-LMY-1">
          <mxGeometry x="339" y="150" width="150" height="140" as="geometry" />
        </mxCell>
        <mxCell id="SRIXOrh7soIWKhcX-LMY-6" value="매도" style="rounded=0;whiteSpace=wrap;html=1;" vertex="1" parent="SRIXOrh7soIWKhcX-LMY-1">
          <mxGeometry x="354" y="610" width="120" height="60" as="geometry" />
        </mxCell>
        <mxCell id="SRIXOrh7soIWKhcX-LMY-9" value="NO" style="text;html=1;strokeColor=none;fillColor=none;align=center;verticalAlign=middle;whiteSpace=wrap;rounded=0;" vertex="1" parent="SRIXOrh7soIWKhcX-LMY-1">
          <mxGeometry x="230" y="150" width="40" height="20" as="geometry" />
        </mxCell>
        <mxCell id="fRviEOMoK5p-qu4EHfzj-1" style="edgeStyle=orthogonalEdgeStyle;rounded=0;orthogonalLoop=1;jettySize=auto;html=1;entryX=0.5;entryY=0;entryDx=0;entryDy=0;" edge="1" parent="SRIXOrh7soIWKhcX-LMY-1" source="fRviEOMoK5p-qu4EHfzj-0" target="SRIXOrh7soIWKhcX-LMY-6">
          <mxGeometry relative="1" as="geometry" />
        </mxCell>
        <mxCell id="fRviEOMoK5p-qu4EHfzj-4" style="edgeStyle=orthogonalEdgeStyle;rounded=0;orthogonalLoop=1;jettySize=auto;html=1;entryX=1;entryY=0.5;entryDx=0;entryDy=0;" edge="1" parent="SRIXOrh7soIWKhcX-LMY-1" source="fRviEOMoK5p-qu4EHfzj-0" target="SRIXOrh7soIWKhcX-LMY-3">
          <mxGeometry relative="1" as="geometry">
            <Array as="points">
              <mxPoint x="590" y="420" />
              <mxPoint x="590" y="220" />
            </Array>
          </mxGeometry>
        </mxCell>
        <mxCell id="fRviEOMoK5p-qu4EHfzj-0" value="BTC - 7% 하락" style="rhombus;whiteSpace=wrap;html=1;" vertex="1" parent="SRIXOrh7soIWKhcX-LMY-1">
          <mxGeometry x="339" y="350" width="150" height="140" as="geometry" />
        </mxCell>
        <mxCell id="fRviEOMoK5p-qu4EHfzj-2" value="Yes" style="text;html=1;strokeColor=none;fillColor=none;align=center;verticalAlign=middle;whiteSpace=wrap;rounded=0;" vertex="1" parent="SRIXOrh7soIWKhcX-LMY-1">
          <mxGeometry x="354" y="300" width="44" height="40" as="geometry" />
        </mxCell>
        <mxCell id="fRviEOMoK5p-qu4EHfzj-3" value="Yes" style="text;html=1;strokeColor=none;fillColor=none;align=center;verticalAlign=middle;whiteSpace=wrap;rounded=0;" vertex="1" parent="SRIXOrh7soIWKhcX-LMY-1">
          <mxGeometry x="460" y="530" width="44" height="40" as="geometry" />
        </mxCell>
        <mxCell id="fRviEOMoK5p-qu4EHfzj-5" value="NO" style="text;html=1;strokeColor=none;fillColor=none;align=center;verticalAlign=middle;whiteSpace=wrap;rounded=0;" vertex="1" parent="SRIXOrh7soIWKhcX-LMY-1">
          <mxGeometry x="600" y="300" width="44" height="40" as="geometry" />
        </mxCell>
      </root>
    </mxGraphModel>
  </diagram>
</mxfile>
